<svg width="120" height="32" viewBox="0 0 120 32" fill="none" xmlns="http://www.w3.org/2000/svg">
  <defs>
    <linearGradient id="logoGradient" x1="0%" y1="0%" x2="100%" y2="0%">
      <stop offset="0%" stop-color="#10B981" />
      <stop offset="100%" stop-color="#059669" />
    </linearGradient>
  </defs>
  <path d="M8 8C8 3.58172 11.5817 0 16 0H24C28.4183 0 32 3.58172 32 8V24C32 28.4183 28.4183 32 24 32H16C11.5817 32 8 28.4183 8 24V8Z" fill="url(#logoGradient)"/>
  <path d="M14 12C14 10.8954 14.8954 10 16 10H24C25.1046 10 26 10.8954 26 12V20C26 21.1046 25.1046 22 24 22H16C14.8954 22 14 21.1046 14 20V12Z" fill="white"/>
  <path d="M18 14C18 13.4477 18.4477 13 19 13H21C21.5523 13 22 13.4477 22 14V18C22 18.5523 21.5523 19 21 19H19C18.4477 19 18 18.5523 18 18V14Z" fill="url(#logoGradient)"/>
  <text x="42" y="20" font-family="Arial, sans-serif" font-size="16" font-weight="bold" fill="#111827">AI Tool Finder</text>
</svg>